<?xml version="1.0" standalone="no"?>
<!DOCTYPE svg PUBLIC "-//W3C//DTD SVG 20010904//EN"
 "http://www.w3.org/TR/2001/REC-SVG-20010904/DTD/svg10.dtd">
<svg version="1.0" xmlns="http://www.w3.org/2000/svg"
 width="453.000000pt" height="453.000000pt" viewBox="0 0 453.000000 453.000000"
 preserveAspectRatio="xMidYMid meet">
<metadata>
Created by potrace 1.14, written by Peter Selinger 2001-2017
</metadata>
<g transform="translate(0.000000,453.000000) scale(0.100000,-0.100000)"
fill="#000000" stroke="none">
<path d="M1821 4176 l-354 -354 99 26 c89 23 118 25 279 25 162 0 190 -3 280
-26 58 -16 148 -51 215 -84 101 -50 126 -67 200 -142 115 -115 155 -194 155
-301 0 -89 -25 -149 -111 -263 -52 -70 -58 -87 -27 -87 31 0 136 -65 175 -109
53 -61 98 -152 153 -311 58 -169 94 -237 164 -304 109 -103 246 -152 396 -142
50 3 106 9 126 12 56 9 88 -36 57 -79 -8 -10 -44 -24 -88 -33 -221 -47 -490
50 -623 224 -49 65 -86 143 -142 302 -26 74 -60 158 -76 186 -34 59 -96 120
-145 140 -51 21 -120 18 -156 -8 l-31 -21 49 -25 c120 -60 184 -146 271 -359
86 -211 150 -310 284 -438 99 -95 145 -128 258 -185 170 -85 386 -115 542 -74
l69 18 22 -22 c18 -18 20 -26 12 -49 -16 -46 -99 -66 -269 -67 -117 -1 -154 3
-225 22 -252 69 -493 243 -646 467 -71 105 -95 151 -154 298 -74 187 -144 273
-248 303 l-53 16 -42 -36 c-80 -66 -182 -164 -177 -168 3 -3 47 -33 98 -67
169 -116 314 -267 555 -581 285 -373 439 -522 653 -632 136 -71 243 -99 397
-105 137 -6 157 -13 157 -57 0 -13 -6 -28 -12 -34 -38 -30 -216 -22 -375 18
-96 25 -294 122 -388 191 -103 76 -295 275 -415 428 -323 413 -448 553 -590
658 -52 38 -160 103 -172 103 -3 0 -41 -41 -84 -90 -68 -79 -78 -95 -76 -123
6 -55 37 -110 89 -159 57 -52 107 -80 239 -131 181 -70 300 -145 432 -271 111
-106 171 -188 237 -321 73 -147 95 -232 102 -380 8 -191 -22 -307 -83 -313
-52 -5 -60 16 -38 106 79 321 -93 703 -421 937 -77 55 -151 92 -301 153 -186
75 -289 155 -337 261 l-20 45 -23 -28 c-33 -38 -32 -105 2 -174 44 -88 113
-131 353 -216 85 -31 178 -70 208 -88 84 -51 175 -154 222 -250 63 -132 83
-260 60 -398 -13 -82 -30 -110 -68 -110 -47 0 -56 21 -43 94 36 194 -14 371
-138 497 -67 68 -149 111 -310 164 -152 50 -242 96 -306 157 -52 49 -104 134
-104 170 0 10 -3 18 -6 18 -3 0 -31 -23 -62 -51 -79 -71 -190 -143 -259 -169
-73 -28 -143 -22 -218 16 -328 165 -495 674 -375 1143 l19 75 -330 -330 -329
-329 0 -1177 0 -1178 2265 0 2265 0 0 2265 0 2265 -1178 0 -1177 0 -354 -354z"/>
</g>
</svg>
